<svg width="17" height="16" viewBox="0 0 17 16" fill="none" xmlns="http://www.w3.org/2000/svg">
<path d="M8.58884 4.83333C8.86498 4.83333 9.08884 5.05719 9.08884 5.33333V8.66667C9.08884 8.94281 8.86498 9.16667 8.58884 9.16667C8.31269 9.16667 8.08884 8.94281 8.08884 8.66667V5.33333C8.08884 5.05719 8.31269 4.83333 8.58884 4.83333Z" fill="#FE4C4A"/>
<path d="M8.58884 11.3333C8.95703 11.3333 9.2555 11.0349 9.2555 10.6667C9.2555 10.2985 8.95703 10 8.58884 10C8.22065 10 7.92217 10.2985 7.92217 10.6667C7.92217 11.0349 8.22065 11.3333 8.58884 11.3333Z" fill="#FE4C4A"/>
<path fill-rule="evenodd" clip-rule="evenodd" d="M6.11845 2.98429C6.83306 2.07662 7.59006 1.5 8.58883 1.5C9.5876 1.5 10.3446 2.07662 11.0592 2.98429C11.762 3.87696 12.5068 5.19748 13.4597 6.88702L13.75 7.40178C14.5378 8.79843 15.1599 9.90152 15.4867 10.7869C15.8207 11.6917 15.9 12.5133 15.3948 13.238C14.9046 13.9412 14.0866 14.2289 13.0549 14.3647C12.0272 14.5 10.6452 14.5 8.87206 14.5H8.30563C6.53253 14.5 5.15044 14.5 4.12272 14.3647C3.09105 14.2289 2.27309 13.9412 1.78284 13.238C1.27763 12.5133 1.35697 11.6917 1.69094 10.7869C2.01774 9.90152 2.6399 8.79844 3.42763 7.4018L3.71792 6.88711C4.67085 5.19753 5.41564 3.87698 6.11845 2.98429ZM6.90416 3.60288C6.25482 4.42765 5.54688 5.67992 4.56548 7.41996L4.32304 7.84981C3.50556 9.29923 2.92463 10.3324 2.62907 11.1332C2.33731 11.9236 2.37776 12.3427 2.60317 12.6661C2.84353 13.0108 3.29467 13.2471 4.25324 13.3733C5.2079 13.499 6.52392 13.5 8.34639 13.5H8.83127C10.6537 13.5 11.9698 13.499 12.9244 13.3733C13.883 13.2471 14.3341 13.0108 14.5745 12.6661C14.7999 12.3427 14.8404 11.9236 14.5486 11.1332C14.253 10.3324 13.6721 9.29922 12.8546 7.84981L12.6122 7.41995C11.6308 5.67991 10.9228 4.42765 10.2735 3.60288C9.63019 2.78577 9.13056 2.5 8.58883 2.5C8.04711 2.5 7.54747 2.78577 6.90416 3.60288Z" fill="#FE4C4A"/>
</svg>
