<svg width="12" height="14" viewBox="0 0 12 14" fill="none" xmlns="http://www.w3.org/2000/svg">
<path d="M10.961 6.53114C10.8195 6.67083 10.6286 6.74916 10.4298 6.74916C10.2309 6.74916 10.04 6.67083 9.89852 6.53114L6.67977 3.31239V12.4999C6.67977 12.6988 6.60075 12.8896 6.4601 13.0302C6.31945 13.1709 6.12868 13.2499 5.92977 13.2499C5.73086 13.2499 5.54009 13.1709 5.39944 13.0302C5.25879 12.8896 5.17977 12.6988 5.17977 12.4999V3.31239L1.96102 6.53114C1.82012 6.67203 1.62903 6.75119 1.42977 6.75119C1.23051 6.75119 1.03941 6.67203 0.898518 6.53114C0.757622 6.39024 0.678467 6.19915 0.678467 5.99989C0.678467 5.80063 0.757622 5.60953 0.898518 5.46864L5.39852 0.968638C5.4682 0.898718 5.55099 0.843241 5.64215 0.805387C5.73332 0.767533 5.83106 0.748047 5.92977 0.748047C6.02848 0.748047 6.12622 0.767533 6.21738 0.805387C6.30855 0.843241 6.39134 0.898718 6.46102 0.968638L10.961 5.46864C11.0309 5.53832 11.0864 5.62111 11.1243 5.71227C11.1621 5.80344 11.1816 5.90118 11.1816 5.99989C11.1816 6.0986 11.1621 6.19634 11.1243 6.2875C11.0864 6.37867 11.0309 6.46146 10.961 6.53114Z" fill="white"/>
</svg>
